<svg width="36" height="36" viewBox="0 0 36 36" fill="none" xmlns="http://www.w3.org/2000/svg">
<path d="M34 34L26.2792 26.2792M26.2792 26.2792C27.5999 24.9585 28.6475 23.3907 29.3622 21.6651C30.077 19.9396 30.4449 18.0901 30.4449 16.2224C30.4449 14.3547 30.077 12.5053 29.3622 10.7797C28.6475 9.05419 27.5999 7.48633 26.2792 6.16565C24.9585 4.84498 23.3907 3.79736 21.6651 3.08262C19.9396 2.36787 18.0901 2 16.2224 2C14.3547 2 12.5053 2.36787 10.7797 3.08262C9.05419 3.79736 7.48633 4.84498 6.16565 6.16565C3.49843 8.83287 2 12.4504 2 16.2224C2 19.9944 3.49843 23.612 6.16565 26.2792C8.83287 28.9464 12.4504 30.4449 16.2224 30.4449C19.9944 30.4449 23.612 28.9464 26.2792 26.2792Z" stroke="#6A6A6A" stroke-width="2.5" stroke-linecap="round" stroke-linejoin="round"/>
</svg>
